<?xml version="1.0" standalone="no"?><!DOCTYPE svg PUBLIC "-//W3C//DTD SVG 1.1//EN" "http://www.w3.org/Graphics/SVG/1.1/DTD/svg11.dtd"><svg t="1525419905289" class="icon" style="" viewBox="0 0 1024 1024" version="1.1" xmlns="http://www.w3.org/2000/svg" p-id="5457" xmlns:xlink="http://www.w3.org/1999/xlink" width="200" height="200"><defs><style type="text/css"></style></defs><path d="M953.001481 565.581336 557.839513 128.84653c-12.284791-13.568017-28.827559-21.042245-46.639227-21.042245l0 0c-17.768689 0-34.328853 7.474228-46.635133 21.042245L69.394998 565.581336c-8.283664 9.182127-7.560186 23.294542 1.575892 31.600719 4.282536 3.891633 9.657964 5.771447 14.990413 5.771447 6.076392 0 12.173251-2.447748 16.610306-7.390317l95.282087-105.310487 0 358.867344c0 37.017078 30.116925 67.13298 67.137073 67.13298l492.333078 0c37.019125 0 67.13605-30.116925 67.13605-67.13298L824.459896 490.25372l95.281063 105.310487c8.266267 9.179057 22.423709 9.925047 31.606859 1.577938 9.17087-8.351202 9.870812-22.423709 1.570775-31.601742L953.001481 565.581336zM600.715019 871.498724 421.686577 871.498724 421.686577 670.089551c0-12.329816 10.031471-22.379707 22.378683-22.379707l134.2721 0c12.325723 0 22.378683 10.04989 22.378683 22.379707L600.716043 871.498724zM779.744485 849.120041c0 12.322653-10.053983 22.37766-22.38073 22.37766L645.471362 871.497701 645.471362 670.089551c0-37.024242-30.114878-67.13605-67.135026-67.13605L444.064236 602.953502c-37.019125 0-67.134003 30.112832-67.134003 67.13605l0 201.408149L265.035794 871.497701c-12.346189 0-22.37766-10.055007-22.37766-22.37766L242.658134 440.796308l255.123538-281.963837c3.672646-4.086062 8.460696-6.315846 13.417591-6.315846 4.960988 0 9.745968 2.229784 13.418614 6.315846l255.125585 281.963837L779.743462 849.120041z" p-id="5458" fill="#ffffff"></path></svg>