<?xml version="1.0" standalone="no"?><!DOCTYPE svg PUBLIC "-//W3C//DTD SVG 1.1//EN" "http://www.w3.org/Graphics/SVG/1.1/DTD/svg11.dtd"><svg t="1525421158334" class="icon" style="" viewBox="0 0 1024 1024" version="1.1" xmlns="http://www.w3.org/2000/svg" p-id="8031" xmlns:xlink="http://www.w3.org/1999/xlink" width="200" height="200"><defs><style type="text/css"></style></defs><path d="M509.773913 340.591304c-64.556522 0-120.208696 35.617391-149.147826 89.043478-13.356522 24.486957-20.034783 51.2-20.034783 82.365217 0 28.93913 6.678261 57.878261 20.034783 80.13913 28.93913 53.426087 84.591304 89.043478 149.147826 89.043478 8.904348 0 20.034783 0 31.165217-2.226087 0 0 2.226087 0 2.226087 0 77.913043-15.582609 138.017391-84.591304 138.017391-166.956522 0-28.93913-6.678261-57.878261-20.034783-82.365217C629.982609 378.434783 574.330435 340.591304 509.773913 340.591304zM509.773913 634.434783c-66.782609 0-122.434783-53.426087-122.434783-122.434783 0-66.782609 53.426087-122.434783 122.434783-122.434783 66.782609 0 122.434783 53.426087 122.434783 122.434783C632.208696 578.782609 576.556522 634.434783 509.773913 634.434783zM1010.643478 416.278261c-2.226087-8.904348-8.904348-17.808696-17.808696-20.034783-53.426087-13.356522-97.947826-44.521739-124.66087-93.495652-26.713043-46.747826-33.391304-102.4-17.808696-153.6 2.226087-8.904348 0-20.034783-6.678261-26.713043-48.973913-42.295652-104.626087-75.686957-164.730435-95.721739-8.904348-2.226087-20.034783 0-26.713043 6.678261-37.843478 40.069565-86.817391 62.330435-142.469565 62.330435-53.426087 0-104.626087-22.26087-142.469565-62.330435-6.678261-6.678261-15.582609-8.904348-26.713043-6.678261-60.104348 22.26087-117.982609 53.426087-164.730435 95.721739C169.182609 129.113043 166.956522 140.243478 169.182609 149.147826c15.582609 53.426087 8.904348 106.852174-17.808696 153.6-26.713043 46.747826-71.234783 80.13913-124.66087 93.495652-8.904348 2.226087-15.582609 8.904348-17.808696 20.034783C2.226087 447.443478 0 480.834783 0 512c0 31.165217 2.226087 64.556522 8.904348 95.721739 2.226087 8.904348 8.904348 17.808696 17.808696 20.034783 53.426087 13.356522 97.947826 44.521739 124.66087 93.495652 26.713043 46.747826 33.391304 102.4 17.808696 153.6-2.226087 8.904348 0 20.034783 6.678261 26.713043 48.973913 42.295652 104.626087 75.686957 164.730435 95.721739 2.226087 0 4.452174 2.226087 8.904348 2.226087 6.678261 0 13.356522-2.226087 17.808696-6.678261 37.843478-40.069565 86.817391-62.330435 142.469565-62.330435 53.426087 0 104.626087 22.26087 142.469565 62.330435 6.678261 6.678261 15.582609 8.904348 26.713043 6.678261 60.104348-22.26087 115.756522-53.426087 164.730435-95.721739 6.678261-6.678261 11.130435-15.582609 6.678261-26.713043-15.582609-53.426087-8.904348-106.852174 17.808696-153.6 26.713043-46.747826 71.234783-80.13913 124.66087-93.495652 8.904348-2.226087 15.582609-8.904348 17.808696-20.034783 6.678261-33.391304 8.904348-64.556522 8.904348-95.721739C1019.547826 480.834783 1017.321739 447.443478 1010.643478 416.278261zM966.121739 583.234783c-57.878261 17.808696-109.078261 57.878261-140.243478 111.304348-31.165217 53.426087-40.069565 117.982609-26.713043 178.086957-37.843478 31.165217-80.13913 55.652174-124.66087 71.234783-44.521739-42.295652-102.4-66.782609-164.730435-66.782609-62.330435 0-120.208696 24.486957-164.730435 66.782609-44.521739-17.808696-86.817391-42.295652-124.66087-71.234783 13.356522-60.104348 4.452174-122.434783-26.713043-178.086957-31.165217-53.426087-80.13913-93.495652-140.243478-111.304348-4.452174-24.486957-6.678261-48.973913-6.678261-71.234783 0-24.486957 2.226087-46.747826 6.678261-71.234783 57.878261-17.808696 109.078261-57.878261 140.243478-111.304348 31.165217-53.426087 40.069565-117.982609 26.713043-178.086957 37.843478-31.165217 80.13913-55.652174 124.66087-71.234783 44.521739 42.295652 104.626087 66.782609 164.730435 66.782609 62.330435 0 120.208696-22.26087 164.730435-66.782609 44.521739 17.808696 86.817391 42.295652 124.66087 71.234783-13.356522 60.104348-4.452174 124.66087 26.713043 178.086957 31.165217 53.426087 80.13913 93.495652 140.243478 111.304348 4.452174 24.486957 6.678261 48.973913 6.678261 71.234783C972.8 536.486957 970.573913 558.747826 966.121739 583.234783z" p-id="8032" fill="#ffffff"></path></svg>